<?xml version="1.0" encoding="UTF-8" standalone="no"?>
<!-- Created with Inkscape (http://www.inkscape.org/) -->

<svg
   width="174.36041mm"
   height="108.21458mm"
   viewBox="0 0 174.36041 108.21458"
   version="1.1"
   id="svg1"
   xml:space="preserve"
   inkscape:version="1.4 (86a8ad7, 2024-10-11)"
   sodipodi:docname="sketch_01.svg"
   xmlns:inkscape="http://www.inkscape.org/namespaces/inkscape"
   xmlns:sodipodi="http://sodipodi.sourceforge.net/DTD/sodipodi-0.dtd"
   xmlns="http://www.w3.org/2000/svg"
   xmlns:svg="http://www.w3.org/2000/svg"><sodipodi:namedview
     id="namedview1"
     pagecolor="#ffffff"
     bordercolor="#000000"
     borderopacity="0.25"
     inkscape:showpageshadow="2"
     inkscape:pageopacity="0.0"
     inkscape:pagecheckerboard="0"
     inkscape:deskcolor="#d1d1d1"
     inkscape:document-units="mm"
     inkscape:zoom="1.3772587"
     inkscape:cx="270.82784"
     inkscape:cy="255.9432"
     inkscape:window-width="1920"
     inkscape:window-height="991"
     inkscape:window-x="-9"
     inkscape:window-y="-9"
     inkscape:window-maximized="1"
     inkscape:current-layer="layer1" /><defs
     id="defs1" /><g
     inkscape:label="Ebene 1"
     inkscape:groupmode="layer"
     id="layer1"
     transform="translate(-13.028296,-13.532998)"><path
       style="fill:none;stroke:#000000;stroke-width:0.499999;stroke-miterlimit:10"
       d="m 85.069045,48.304666 c 0,0 16.669235,10.384776 19.402975,6.147477 15.3687,-23.821474 19.59508,2.689522 23.62937,2.305304 4.03428,-0.384217 4.4185,-0.768434 7.87645,-0.192108 3.45796,0.576326 11.71863,1.728978 14.21604,0.192108 2.49741,-1.536869 7.68435,-6.339585 7.87646,-7.684346 0.19211,-1.344761 3.45795,-7.684347 3.45795,-7.684347"
       id="path1"
       inkscape:label="Cretaceous"
       sodipodi:nodetypes="csssssc" /><path
       style="fill:none;stroke:#000000;stroke-width:0.499999;stroke-miterlimit:10"
       d="m 32.431271,45.423036 c 0,0 15.176585,6.339586 19.787193,8.260673 4.610607,1.921086 25.934669,8.836998 30.16106,9.98965 4.22639,1.152652 21.516166,6.147478 33.234796,6.723804 11.71863,0.576326 31.50582,2.497412 34.96378,1.152652 3.45796,-1.344761 13.44761,-11.718629 15.36869,-14.216042 1.92109,-2.497412 10.37387,-10.758085 10.37387,-10.758085"
       id="path2"
       inkscape:label="Frasne" /><path
       style="fill:none;stroke:#000000;stroke-width:0.499999;stroke-miterlimit:10"
       d="m 24.746925,46.191471 c 0,0 14.984475,8.260672 18.63454,9.221216 3.650065,0.960543 23.228122,7.037911 30.2486,9.186161 7.020481,2.14825 14.512719,7.143075 26.999785,8.487836 12.48706,1.344761 25.35834,4.610608 36.11643,4.418499 10.75808,-0.192108 16.90556,1.53687 23.82147,-8.068564 6.91591,-9.605433 11.71863,-13.639715 13.63972,-16.137128 1.92108,-2.497412 2.3053,-3.265847 2.3053,-3.265847"
       id="path3"
       sodipodi:nodetypes="cssssssc"
       inkscape:label="Namur" /><path
       style="fill:none;stroke:#000000;stroke-width:0.499999;stroke-miterlimit:10"
       d="m 72.197765,42.925624 c -14.216042,-5.955369 -15.752911,-5.76326 -15.752911,-5.76326 0,0 -9.98965,-2.88163 -13.447606,-2.497413 -3.457956,0.384217 -10.950194,0.192109 -10.950194,0.192109"
       id="path4"
       inkscape:label="Cretaceous" /></g></svg>
